<svg xmlns="http://www.w3.org/2000/svg" version="1.1" xmlns:xlink="http://www.w3.org/1999/xlink" xmlns:svgjs="http://svgjs.dev/svgjs" width="1500" height="401" viewBox="0 0 1500 401"><g transform="matrix(1,0,0,1,-0.9090909090909918,10.405207015551525)"><svg viewBox="0 0 396 106" data-background-color="#000000" preserveAspectRatio="xMidYMid meet" height="401" width="1500" xmlns="http://www.w3.org/2000/svg" xmlns:xlink="http://www.w3.org/1999/xlink"><g id="tight-bounds" transform="matrix(1,0,0,1,0.2400000000000091,0.09306466704015293)"><svg viewBox="0 0 395.52 105.88219624784583" height="105.88219624784583" width="395.52"><g><svg viewBox="0 0 634.4884975748322 169.85496464709556" height="105.88219624784583" width="395.52"><g><rect width="11.083716354702311" height="123.51971018113676" x="198.86981694080453" y="23.1676272329794" fill="#ffffff" opacity="1" stroke-width="0" stroke="transparent" fill-opacity="1" class="rect-yte-0" data-fill-palette-color="primary" rx="1%" id="yte-0" data-palette-color="#ffffff"></rect></g><g transform="matrix(1,0,0,1,238.96849757483227,23.474890193628987)"><svg viewBox="0 0 395.52 122.90518425983758" height="122.90518425983758" width="395.52"><g id="textblocktransform"><svg viewBox="0 0 395.52 122.90518425983758" height="122.90518425983758" width="395.52" id="textblock"><g><svg viewBox="0 0 395.52 122.90518425983758" height="122.90518425983758" width="395.52"><g transform="matrix(1,0,0,1,0,0)"><svg width="395.52" viewBox="1.35 -41.45 160.09 49.75" height="122.90518425983758" data-palette-color="#ffffff"><g class="wordmark-text-0" data-fill-palette-color="primary" id="text-0"><path d="M8.45-27.2L8.45-27.2 8.45-17 25.6-17 25.6-27.2Q25.6-30 24.7-31.3 23.8-32.6 21.3-32.6L21.3-32.6Q20.4-32.6 19.3-32.35L19.3-32.35 19.2-32.85Q20.1-33.15 21.45-33.15L21.45-33.15Q24.1-33.15 25.2-31.68 26.3-30.2 26.3-27.2L26.3-27.2 26.3-5.35Q26.3-2.35 25.2-0.88 24.1 0.6 21.45 0.6L21.45 0.6Q20.1 0.6 19.2 0.3L19.2 0.3 19.3-0.2Q20.4 0.05 21.3 0.05L21.3 0.05Q23.8 0.05 24.7-1.25 25.6-2.55 25.6-5.35L25.6-5.35 25.6-16.4 8.45-16.4 8.45-5.35Q8.45-2.45 9.38-1.2 10.3 0.05 12.75 0.05L12.75 0.05Q13.65 0.05 14.75-0.2L14.75-0.2 14.85 0.3Q13.95 0.6 12.6 0.6L12.6 0.6Q8.7 0.6 8.1-2.7L8.1-2.7Q7.45 0.6 3.6 0.6L3.6 0.6Q2.25 0.6 1.35 0.3L1.35 0.3 1.45-0.2Q2.55 0.05 3.45 0.05L3.45 0.05Q5.95 0.05 6.85-1.25 7.75-2.55 7.75-5.35L7.75-5.35 7.75-27.2Q7.75-30 6.85-31.3 5.95-32.6 3.45-32.6L3.45-32.6Q2.55-32.6 1.45-32.35L1.45-32.35 1.35-32.85Q2.25-33.15 3.6-33.15L3.6-33.15Q7.45-33.15 8.1-29.85L8.1-29.85Q8.7-33.15 12.6-33.15L12.6-33.15Q13.95-33.15 14.85-32.85L14.85-32.85 14.75-32.35Q13.65-32.6 12.75-32.6L12.75-32.6Q10.3-32.6 9.38-31.35 8.45-30.1 8.45-27.2ZM28.3-27.2L28.3-27.2 28.3-5.35Q28.3-2.55 29.2-1.25 30.1 0.05 32.6 0.05L32.6 0.05Q33.5 0.05 34.6-0.2L34.6-0.2 34.7 0.3Q33.8 0.6 32.45 0.6L32.45 0.6Q29.8 0.6 28.7-0.88 27.6-2.35 27.6-5.35L27.6-5.35 27.6-27.2Q27.6-30.2 28.7-31.68 29.8-33.15 32.45-33.15L32.45-33.15Q33.8-33.15 34.7-32.85L34.7-32.85 34.6-32.35Q33.5-32.6 32.6-32.6L32.6-32.6Q30.1-32.6 29.2-31.3 28.3-30 28.3-27.2ZM61.3-5.35L61.3-12.65 50.8-12.7 48.55-4.25Q47.8-1.4 47.1 0.45 46.4 2.3 45.25 4.2L45.25 4.2Q42.85 8 38.15 8L38.15 8 38.15 7.4Q41.9 7.4 44 4.88 46.1 2.35 47.35-2.05L47.35-2.05 47.85-3.1 47.75-3.15Q46.05 0.65 42.35 0.65L42.35 0.65Q39.9 0.65 38.3-1 36.7-2.65 36.7-5.15L36.7-5.15Q36.7-13.3 50.3-13.3L50.3-13.3 55.3-32.2 53.75-32.25Q53.55-32.25 53.35-32.25L53.35-32.25Q50.6-32.25 48.9-30.98 47.2-29.7 47.2-27.6L47.2-27.6Q47.2-26.6 47.5-25.95L47.5-25.95 47.1-25.65Q46.55-26.25 46.55-27.73 46.55-29.2 47.6-30.53 48.65-31.85 50.3-32.3L50.3-32.3Q50.75-32.4 51.45-32.5L51.45-32.5 51.45-32.6 50.3-32.55Q45.5-33.15 42.5-35.27 39.5-37.4 39.5-41.4L39.5-41.4 40.1-41.45Q40.1-39.15 41.25-37.48 42.4-35.8 44.4-34.85L44.4-34.85Q48.2-33.05 53.4-32.85L53.4-32.85 62-32.45 62-5.35Q62-2.35 60.9-0.88 59.8 0.6 57.15 0.6L57.15 0.6Q55.8 0.6 54.9 0.3L54.9 0.3 55-0.2Q56.1 0.05 57 0.05L57 0.05Q59.5 0.05 60.4-1.25 61.3-2.55 61.3-5.35L61.3-5.35ZM50.95-13.3L53.35-13.3 61.3-13.25 61.3-31.9 55.95-32.15 50.95-13.3ZM37.4-5.15L37.4-5.15Q37.4-2.95 38.8-1.45 40.2 0.05 42.35 0.05L42.35 0.05Q45.8 0.05 47.45-3.6L47.45-3.6Q48.35-5.65 49-8.4L49-8.4 50.15-12.7Q37.4-12.6 37.4-5.15ZM63.3-5.35L63.3-5.35 63.3-30.25Q63.3-33.25 64.4-34.73 65.5-36.2 68.15-36.2L68.15-36.2Q69.5-36.2 70.4-35.9L70.4-35.9 70.3-35.4Q69.2-35.65 68.3-35.65L68.3-35.65Q65.8-35.65 64.9-34.35 64-33.05 64-30.25L64-30.25 64-5.35Q64-2.55 64.9-1.25 65.8 0.05 68.3 0.05L68.3 0.05Q69.2 0.05 70.3-0.2L70.3-0.2 70.4 0.3Q69.5 0.6 68.15 0.6L68.15 0.6Q65.5 0.6 64.4-0.88 63.3-2.35 63.3-5.35ZM80.75-32.65L80.75-5.35Q80.75-2.35 79.65-0.88 78.55 0.6 75.9 0.6L75.9 0.6Q74.55 0.6 73.65 0.3L73.65 0.3 73.75-0.2Q74.85 0.05 75.75 0.05L75.75 0.05Q78.25 0.05 79.15-1.25 80.05-2.55 80.05-5.35L80.05-5.35 80.05-32Q77.25-31.8 75.95-31.25L75.95-31.25Q73-30 73-27.2L73-27.2Q73-26 73.5-25.05L73.5-25.05 73.1-24.75Q72.35-25.6 72.35-27.15L72.35-27.15Q72.35-30.45 75.65-31.65L75.65-31.65Q76.25-31.85 76.75-32L76.75-32 76.75-32.1 75.6-31.9Q70.8-32 67.57-33.83 64.35-35.65 63.95-39.6L63.95-39.6 64.55-39.7Q65.35-32.5 76.95-32.5L76.95-32.5Q78.55-32.5 80.75-32.65L80.75-32.65ZM82.05-5.35L82.05-5.35 82.05-32.75Q87.75-33.15 89.65-33.15L89.65-33.15Q94.15-33.15 96.22-31.4 98.3-29.65 98.3-25.68 98.3-21.7 96.05-19.25 93.8-16.8 90.15-16.65L90.15-16.65Q91.8-15.4 93.9-11.3L93.9-11.3 96.9-5.4Q98.85-1.5 100.17 0.6 101.5 2.7 103.34 4.53 105.2 6.35 107.47 7.05 109.75 7.75 113 7.75L113 7.75 113 8.3Q109.7 8.3 107.42 7.65 105.15 7 103.2 5.23 101.25 3.45 99.8 1.2 98.35-1.05 96.3-5.1L96.3-5.1 93.3-11Q91.7-14.15 90.65-15.38 89.6-16.6 88.45-16.75L88.45-16.75Q85.75-17.2 85.75-19.45L85.75-19.45Q85.75-20.6 86.57-21.33 87.4-22.05 88.6-22.15L88.6-22.15 88.7-21.65Q87.7-21.55 87.07-20.98 86.45-20.4 86.45-19.45L86.45-19.45Q86.45-17.2 89.85-17.2 93.25-17.2 95.42-19.48 97.6-21.75 97.6-25.53 97.6-29.3 95.7-30.93 93.8-32.55 89.7-32.55L89.7-32.55Q88.45-32.55 82.75-32.2L82.75-32.2 82.75-5.35Q82.75-2.55 83.65-1.25 84.55 0.05 87.05 0.05L87.05 0.05Q87.95 0.05 89.05-0.2L89.05-0.2 89.15 0.3Q88.25 0.6 86.9 0.6L86.9 0.6Q84.25 0.6 83.15-0.88 82.05-2.35 82.05-5.35ZM122.49-12.95L122.49-12.95Q122.49-14.35 121.09-15.35 119.69-16.35 115.79-17.8 111.89-19.25 109.44-20.8 106.99-22.35 106.99-24.53 106.99-26.7 109.44-29.43 111.89-32.15 114.19-33.3L114.19-33.3Q118.89-33.3 123.09-30.95L123.09-30.95 122.79-30.45Q118.59-32.7 114.39-32.7L114.39-32.7 113.69-32.3Q111.49-30.9 109.59-28.63 107.69-26.35 107.69-24.48 107.69-22.6 110.17-21.1 112.64-19.6 116.37-18.2 120.09-16.8 121.64-15.7 123.19-14.6 123.19-12.95L123.19-12.95Q123.19-12 122.64-11.05L122.64-11.05Q122.79-10.5 122.79-10.05L122.79-10.05Q122.79-7.4 120.42-3.93 118.04-0.45 115.59 0.7L115.59 0.7Q104.89 0.7 104.89-5.3L104.89-5.3Q104.89-7.25 105.97-8.53 107.04-9.8 108.77-9.8 110.49-9.8 111.49-8.78 112.49-7.75 112.49-6.1L112.49-6.1Q112.49-5.5 112.24-4.9L112.24-4.9 111.69-5.1Q111.84-5.6 111.84-6.1L111.84-6.1Q111.84-7.5 111.02-8.35 110.19-9.2 108.74-9.2 107.29-9.2 106.44-8.1 105.59-7 105.59-5.35 105.59-3.7 106.42-2.58 107.24-1.45 108.79-0.9L108.79-0.9Q111.59 0.1 115.39 0.1L115.39 0.1Q117.84-1.1 119.97-4.33 122.09-7.55 122.09-9.8 122.09-12.05 119.64-13.5 117.19-14.95 113.44-16.35 109.69-17.75 108.24-18.85 106.79-19.95 106.29-21.05L106.29-21.05 106.79-21.4Q107.54-20.05 108.74-19.2 109.94-18.35 113.09-17.15 116.24-15.95 118.82-14.65 121.39-13.35 122.29-11.8L122.29-11.8Q122.49-12.35 122.49-12.95ZM135.19-27.2L135.19-27.2 135.19-17 152.34-17 152.34-27.2Q152.34-30 151.44-31.3 150.54-32.6 148.04-32.6L148.04-32.6Q147.14-32.6 146.04-32.35L146.04-32.35 145.94-32.85Q146.84-33.15 148.19-33.15L148.19-33.15Q150.84-33.15 151.94-31.68 153.04-30.2 153.04-27.2L153.04-27.2 153.04-5.35Q153.04-2.35 151.94-0.88 150.84 0.6 148.19 0.6L148.19 0.6Q146.84 0.6 145.94 0.3L145.94 0.3 146.04-0.2Q147.14 0.05 148.04 0.05L148.04 0.05Q150.54 0.05 151.44-1.25 152.34-2.55 152.34-5.35L152.34-5.35 152.34-16.4 135.19-16.4 135.19-5.35Q135.19-2.45 136.12-1.2 137.04 0.05 139.49 0.05L139.49 0.05Q140.39 0.05 141.49-0.2L141.49-0.2 141.59 0.3Q140.69 0.6 139.34 0.6L139.34 0.6Q135.44 0.6 134.84-2.7L134.84-2.7Q134.19 0.6 130.34 0.6L130.34 0.6Q128.99 0.6 128.09 0.3L128.09 0.3 128.19-0.2Q129.29 0.05 130.19 0.05L130.19 0.05Q132.69 0.05 133.59-1.25 134.49-2.55 134.49-5.35L134.49-5.35 134.49-27.2Q134.49-30 133.59-31.3 132.69-32.6 130.19-32.6L130.19-32.6Q129.29-32.6 128.19-32.35L128.19-32.35 128.09-32.85Q128.99-33.15 130.34-33.15L130.34-33.15Q134.19-33.15 134.84-29.85L134.84-29.85Q135.44-33.15 139.34-33.15L139.34-33.15Q140.69-33.15 141.59-32.85L141.59-32.85 141.49-32.35Q140.39-32.6 139.49-32.6L139.49-32.6Q137.04-32.6 136.12-31.35 135.19-30.1 135.19-27.2ZM155.04-27.2L155.04-27.2 155.04-5.35Q155.04-2.55 155.94-1.25 156.84 0.05 159.34 0.05L159.34 0.05Q160.24 0.05 161.34-0.2L161.34-0.2 161.44 0.3Q160.54 0.6 159.19 0.6L159.19 0.6Q156.54 0.6 155.44-0.88 154.34-2.35 154.34-5.35L154.34-5.35 154.34-27.2Q154.34-30.2 155.44-31.68 156.54-33.15 159.19-33.15L159.19-33.15Q160.54-33.15 161.44-32.85L161.44-32.85 161.34-32.35Q160.24-32.6 159.34-32.6L159.34-32.6Q156.84-32.6 155.94-31.3 155.04-30 155.04-27.2Z" fill="#ffffff" data-fill-palette-color="primary"></path></g></svg></g></svg></g></svg></g></svg></g><g><svg viewBox="0 0 169.8548526614791 169.85496464709556" height="169.85496464709556" width="169.8548526614791"><g><svg xmlns="http://www.w3.org/2000/svg" xmlns:xlink="http://www.w3.org/1999/xlink" version="1.1" x="0" y="0" viewBox="3 2.9999617604934223 58 58.00003823950658" style="enable-background:new 0 0 64 64;" xml:space="preserve" height="169.85496464709556" width="169.8548526614791" class="icon-icon-0" data-fill-palette-color="accent" id="icon-0"><g fill="#ffffff" data-fill-palette-color="accent"><path d="M13 61H31C32.103 61 33 60.103 33 59H11C11 60.103 11.897 61 13 61" fill="#ffffff" data-fill-palette-color="accent"></path><path d="M13 15V14C13 11.519 14.822 9.469 17.195 9.081A7.8 7.8 0 0 1 17 7.395V7H19V7.395C19 9.318 19.955 11.102 21.555 12.168L20.446 13.832A7.7 7.7 0 0 1 17.898 11.01 3 3 0 0 0 15 14V22C15 24.757 17.243 27 20 27H24C26.757 27 29 24.757 29 22V14A1 1 0 0 0 28 13H27C23.691 13 21 10.309 21 7H23C23 9.206 24.794 11 27 11H28C29.654 11 31 12.346 31 14V15C31.591 15 32.148 15.137 32.654 15.368 32.88 14.206 33 13.024 33 11.838 33 6.965 29.035 3 24.162 3H20.472A6.2 6.2 0 0 0 14.895 6.447L14.746 6.745 13.882 7.179A5.18 5.18 0 0 0 11 11.838C11 13.024 11.12 14.205 11.346 15.368A4 4 0 0 1 13 15M22 24A4 4 0 0 1 18 20H26A4 4 0 0 1 22 24M23 15V17H21V15z" fill="#ffffff" data-fill-palette-color="accent"></path><path d="M20 29C19.873 29 19.749 28.988 19.624 28.981L19.086 31.671 19.294 31.879C20.006 32.592 20.992 33 22 33S23.994 32.592 24.707 31.879L24.915 31.671 24.377 28.981C24.251 28.988 24.127 29 24 29z" fill="#ffffff" data-fill-palette-color="accent"></path><path d="M13 21V17C11.897 17 11 17.897 11 19S11.897 21 13 21" fill="#ffffff" data-fill-palette-color="accent"></path><path d="M31 17V21C32.103 21 33 20.103 33 19S32.103 17 31 17" fill="#ffffff" data-fill-palette-color="accent"></path><path d="M34.365 16.855C34.394 16.901 34.416 16.952 34.444 17H39V5.001H32.561A10.78 10.78 0 0 1 35 11.838C35 13.53 34.78 15.215 34.365 16.855" fill="#ffffff" data-fill-palette-color="accent"></path><path d="M51.535 29.535A4.96 4.96 0 0 1 48.002 30.999H48A2.995 2.995 0 0 1 45.184 28.999L39 29V44.697C39 44.966 39.405 45.089 39.555 44.866L43.465 39H57V29L51.976 28.999C51.837 29.183 51.701 29.369 51.535 29.535M45 35H43V33H45zM49 35H47V33H49zM53 35H51V33H53z" fill="#ffffff" data-fill-palette-color="accent"></path><path d="M39.303 47A2.305 2.305 0 0 1 37 44.697V41.34A21.97 21.97 0 0 0 26.667 33.318L26.252 33.162 26.122 33.292C25.036 34.378 23.534 35 22 35S18.964 34.378 17.879 33.293L17.748 33.162 17.332 33.318C8.76 36.533 3 44.845 3 54 3 56.757 5.243 59 8 59H9V55H5V53H9V43C9 41.897 9.897 41 11 41H33C34.103 41 35 41.897 35 43V53H39V55H35V59H36C38.757 59 41 56.757 41 54 41 51.579 40.586 49.212 39.816 46.936A2.3 2.3 0 0 1 39.303 47" fill="#ffffff" data-fill-palette-color="accent"></path><path d="M61 11V9H54V7H60.815A2.99 2.99 0 0 0 58 5.001H41V17.203C44.522 18.17 47 21.357 47 25.083V27.999A1 1 0 0 0 48 28.999H48.001C48.803 28.999 49.555 28.687 50.121 28.121A2.98 2.98 0 0 0 51 26V20.999A4.004 4.004 0 0 1 55 17L58 17.001C59.654 17.001 61 15.655 61 14.002V13H54V11z" fill="#ffffff" data-fill-palette-color="accent"></path><path d="M11 57H33V43H11zM22 48A2 2 0 1 1 22.001 51.999 2 2 0 0 1 22 48" fill="#ffffff" data-fill-palette-color="accent"></path></g></svg></g></svg></g></svg></g><defs></defs></svg><rect width="395.52" height="105.88219624784583" fill="none" stroke="none" visibility="hidden"></rect></g></svg></g></svg>